<svg id="Layer_1" data-name="Layer 1" xmlns="http://www.w3.org/2000/svg" viewBox="0 0 400.32 313.92"><defs><style>.cls-1{fill:#65c3a1;}.cls-2,.cls-3{fill:#66c3a1;}.cls-3{stroke:#68c4a1;stroke-width:5px;}.cls-3,.cls-4,.cls-5{stroke-miterlimit:10;}.cls-4,.cls-5{fill:none;stroke:#67c3a1;}.cls-4{stroke-width:2px;}.cls-6{font-size:38.09px;font-family:Poppins-Bold, Poppins;font-weight:700;}</style></defs><path class="cls-1" d="M65.14,124l4.77,1,2.56-5a5.94,5.94,0,0,1,5.93-3.08,17.54,17.54,0,0,1,4.72,1.34S94.82,124,113.66,124l9.75-.2v-5.17h-16s-10.93-.51-18.55-2.84a10.46,10.46,0,0,1-2.5-1.13c-2.9-1.77-12-6.52-16.86.6C69.47,115.29,65.57,119.86,65.14,124Z"/><path class="cls-2" d="M61.93,142.61h0a4.47,4.47,0,0,1-2.29-5.67L61.09,133a4,4,0,0,1,5.28-2.45h0a4.48,4.48,0,0,1,2.29,5.68l-1.44,3.9A4,4,0,0,1,61.93,142.61Z"/><path class="cls-1" d="M64.75,182.1l4.8-1,2.58,5a6,6,0,0,0,6,3.09,18.13,18.13,0,0,0,4.76-1.34s11.77-5.76,30.75-5.76l9.81.2v5.16H107.27s-11,.52-18.67,2.85a10.58,10.58,0,0,0-2.52,1.12c-2.92,1.78-12.06,6.53-17-.59C69.11,190.84,65.18,186.27,64.75,182.1Z"/><path class="cls-1" d="M61.67,163.47h0a4.48,4.48,0,0,0-2.28,5.67l1.44,3.91a4,4,0,0,0,5.29,2.45h0a4.48,4.48,0,0,0,2.28-5.67L67,165.92A4,4,0,0,0,61.67,163.47Z"/><path class="cls-2" d="M131.06,119.1v5.56s10.56-.4,13.34,12.51c0,0,4.07,23.44-.93,35.56,0,0-3.33,9.53-12.41,10.52V188s13.71,1,18.34-15.29c0,0,5.55-18.28,0-36.95C149.4,135.78,146.25,120.89,131.06,119.1Z"/><polygon class="cls-3" points="174.25 86.56 200.16 175.49 226.81 54.64 245.69 148.89 270.86 148.89 270.86 157.62 239.39 156.83 225.7 95.29 200.9 207.64 178.69 140.95 173.14 159.6 151.67 159.6 151.67 150.08 168.33 150.08 173.88 128.24 174.25 86.56"/><ellipse class="cls-4" cx="295.92" cy="152.64" rx="22.76" ry="24.41"/><ellipse class="cls-5" cx="295.92" cy="152.64" rx="15.36" ry="16.48"/><text class="cls-6" transform="translate(206.7 218.75) scale(0.93 1)"><tspan xml:space="preserve"> VITALITY</tspan></text></svg>